<svg width="84.85" height="94.02" viewBox="0 0 74 82" xmlns="http://www.w3.org/2000/svg">
  <g fill="none" fill-rule="evenodd">
    <path d="M38.5999 25.03438c-.33392.578-.13558 1.31715.44242 1.65108l5.19033 2.9969-5.19033 2.99767c-.578.33316-.77634 1.07232-.4424 1.6503.2239.38818.6299.60512 1.0475.60512.20533 0 .41298-.05268.6028-.1627l7.00413-4.04364c.37422-.2154.6051-.6144.6051-1.04674 0-.43156-.23088-.83058-.6051-1.04674l-7.00413-4.04365c-.57644-.33393-1.31715-.13558-1.6503.4424" fill="#C25E45"/>
    <path d="M36.71267 81.57727c-15.56093 0-27.75074-12.7345-27.75074-28.9912V1.35294c0-.66788.5408-1.20868 1.20868-1.20868h53.08414c.6671 0 1.20868.5408 1.20868 1.20868v51.23315c0 16.2567-12.1898 28.9912-27.75075 28.9912zM11.37927 2.5616v50.02448c0 15.14952 10.8905 26.57383 25.3334 26.57383 14.44214 0 25.3334-11.4243 25.3334-26.57382V2.5616h-50.6668z" fill="#6CB3B7"/>
    <path d="M57.32804 39.395H53.1341c.4827-2.5723 2.06636-4.85872 4.37524-6.19446.578-.3347.77557-1.07386.44086-1.65186-.33393-.57722-1.0723-.77557-1.65108-.44086-3.05578 1.76808-5.10898 4.84943-5.61415 8.2872h-2.72572c.8236-7.04133 6.82282-12.52454 14.08108-12.52454.66787 0 1.20868-.5408 1.20868-1.20867 0-.6671-.5408-1.2079-1.20867-1.2079-8.59322 0-15.6818 6.56405-16.51548 14.9411H37.5871V20.79535c3.05656-.42382 5.41968-3.0465 5.41968-6.2177 0-3.46566-2.81947-6.28513-6.28512-6.28513h-15.5315c-1.56584 0-2.84038-1.27375-2.84038-2.84038 0-1.2567.8422-2.3786 2.04545-2.72804.25723-.07438.52454-.11235.79494-.11235.66787 0 1.20868-.5408 1.20868-1.20868 0-.6671-.5408-1.20867-1.20868-1.20867-.4982 0-.9925.0705-1.46823.20842-2.23063.64772-3.78874 2.72417-3.78874 5.04932 0 2.89927 2.3577 5.25697 5.25697 5.25697h15.5315c2.13222 0 3.86698 1.73552 3.86698 3.86853 0 1.8347-1.28538 3.37267-3.00232 3.76704-.01085-3.3231-2.7172-6.02324-6.0426-6.02324H16.8002c-.66787 0-1.20868.5408-1.20868 1.20868s.5408 1.20868 1.20868 1.20868h14.74352c1.99974 0 3.62603 1.6263 3.62603 3.62603v.11468c-1.82773.0984-3.59736.4207-5.28176.9375-1.05838-1.87112-3.04262-3.06663-5.2531-3.06663h-5.07412c-.66787 0-1.20867.5408-1.20867 1.20868 0 .6671.5408 1.2079 1.20868 1.2079h5.07412c1.18853 0 2.26937.578 2.9388 1.50775-7.84944 3.41296-13.35356 11.23836-13.35356 20.329 0 9.28434 5.74198 17.24843 13.8595 20.53975V73.5494c0 .66788.5408 1.20868 1.20866 1.20868.66787 0 1.20868-.5408 1.20868-1.20867V61.96317c1.50077.41452 3.06353.67794 4.67277.76472v9.70505c0 .6671.5408 1.2079 1.20868 1.2079.66787 0 1.20867-.5408 1.20867-1.2079v-9.70505c11.6583-.6299 20.94962-10.3117 20.94962-22.1242 0-.66787-.5408-1.20867-1.20868-1.20867M16.63672 40.6037c0-10.47984 8.20815-19.0777 18.53303-19.70452V39.395h-1.17303c-1.99897 0-3.62603-1.62706-3.62603-3.62602v-1.12345c2.2376-.54546 3.90494-2.5607 3.90494-4.96332 0-2.81946-2.29338-5.11285-5.11285-5.11285-2.81948 0-5.11365 2.2934-5.11365 5.11286 0 2.40264 1.66813 4.41787 3.90496 4.96333V35.769c0 3.33238 2.711 6.04338 6.04262 6.04338H45.3513c-.5935 4.4264-4.3861 7.85484-8.97287 7.85484H29.2883c-.66787 0-1.20867.5408-1.20867 1.20868v7.63403c-6.75-3.141-11.4429-9.98397-11.4429-17.90622m12.52606-8.2252c-1.48684 0-2.6963-1.20945-2.6963-2.69627 0-1.48605 1.20946-2.6955 2.6963-2.6955 1.48604 0 2.6955 1.20945 2.6955 2.6955 0 1.48683-1.20946 2.69628-2.6955 2.69628m1.33418 27.07125V52.0846h5.88145c5.92174 0 10.8099-4.50852 11.4158-10.2722h2.7102c-.61595 7.25515-6.71434 12.97312-14.126 12.97312-.66787 0-1.20868.5408-1.20868 1.2079v4.31095c-1.617-.0984-3.18285-.38817-4.67277-.8546m7.09012.8546v-3.14566c8.19034-.5927 14.74895-7.15598 15.34167-15.3463h3.15418c-.6028 9.9243-8.5723 17.8884-18.49585 18.49196" fill="#6CB3B7"/>
    <path  d="M62.0404 29.5715c-.63532 0-1.27143.0519-1.8897.15417-.65858.11002-1.10332.73218-.99484 1.39075.09917.59195.6113 1.0111 1.19163 1.0111l.1991-.01704c.48813-.08057.99097-.1224 1.4938-.1224.66788 0 1.20868-.54082 1.20868-1.20792 0-.66787-.5408-1.20867-1.20867-1.20867m-32.878-1.26469c-.7593 0-1.37526.61595-1.37526 1.37603 0 .7593.61596 1.37525 1.37526 1.37525.76007 0 1.37603-.61596 1.37603-1.37525 0-.76008-.61596-1.37604-1.37603-1.37604M13.0499 12.32143h-1.20094c-.6671 0-1.2079.5408-1.2079 1.20868s.5408 1.20868 1.2079 1.20868h1.20093c.66786 0 1.20867-.5408 1.20867-1.20867 0-.66786-.5408-1.20867-1.20868-1.20867M28.07994 77.3046v1.20092c0 .6671.5408 1.2079 1.20867 1.2079.66788 0 1.2087-.5408 1.2087-1.2079V77.3046c0-.66788-.54082-1.20868-1.2087-1.20868-.66786 0-1.20866.5408-1.20866 1.20868M1.5336 18.91205c.81974 0 1.24122.49044 1.24122 1.34814v.1689h-.79726v-.22237c0-.38275-.15263-.5284-.42148-.5284-.2673 0-.42072.14565-.42072.5284 0 1.1033 1.6472 1.31017 1.6472 2.8427 0 .85848-.42922 1.34815-1.2567 1.34815s-1.2567-.48967-1.2567-1.34814v-.3293h.79725v.38276c0 .38352.16814.52144.43622.52144.26807 0 .43698-.13792.43698-.52144 0-1.1033-1.6472-1.31017-1.6472-2.8427 0-.8577.42148-1.34815 1.2412-1.34815M3.0009 32.00286h-.8507l-.1449-.97313H.97095l-.14643.97313H.05127l.8577-5.3631H2.1432l.8577 5.3631zM1.07788 30.3022h.812l-.406-2.71255-.406 2.71255zm-.54406 4.00343h.84297v4.5976h1.38687v.7655H.53382m-.31008 2.303H2.8286v.76627h-.88094v4.59685h-.84298V42.738H.22374m70.64892-23.79527h.84297v4.59762h1.38688v.7655h-2.22984m2.46708 7.66649h-.85072l-.14566-.97314h-1.03435l-.14566.97314h-.77325l.8577-5.36312h1.23348l.85847 5.36312zM71.4167 30.2709h.812l-.406-2.71178-.406 2.71177zm.27197 7.22974l-.26033.49044v1.6472h-.84298v-5.3631h.84298v2.33677l1.10253-2.33677h.84297l-1.17226 2.39023 1.17226 2.9729h-.86544m-.90426 4.56312h1.15676v.76627h-1.15676v1.5705h1.45583v.76627h-2.29803v-5.3631h2.29803v.76626h-1.45583" fill="#6CB3B7"/>
  </g>
</svg>
