<?xml version="1.0" encoding="UTF-8"?>
<svg width="344px" height="170px" viewBox="0 0 344 170" version="1.1" xmlns="http://www.w3.org/2000/svg" xmlns:xlink="http://www.w3.org/1999/xlink">
    <!-- Generator: Sketch 48.2 (47327) - http://www.bohemiancoding.com/sketch -->
    <title>image (19)</title>
    <desc>Created with Sketch.</desc>
    <defs></defs>
    <g id="Page-1" stroke="none" stroke-width="1" fill="none" fill-rule="evenodd">
        <g id="image-(19)">
            <path d="M176.719009,170 C179.364252,167.057146 179.622822,162.772905 177.349359,159.555697 C177.219581,159.98345 177.998249,165.205602 172.807127,164.546149 C169.97055,164.189688 168.913786,167.825589 170.582361,169.982177 C164.835048,169.126671 160.830468,161.106302 164.278857,155.527689 C164.315936,156.044558 164.315936,156.543603 164.408635,157.007002 C164.909207,159.199236 166.911497,160.696372 168.895247,160.39338 C171.120013,160.036919 172.788588,157.880331 172.417793,155.581158 C172.176777,154.315722 171.639125,153.085933 171.212712,151.873966 C169.710994,147.596435 171.768903,143.247613 176.033039,142 C176.033039,142.196053 174.179067,146.330999 178.053868,149.842139 C179.351649,151.214513 180.797747,152.515595 181.947209,154.012731 C186.266964,159.609166 183.411848,168.235519 176.719009,170" id="Fill-67" fill="#C35F45" fill-rule="nonzero"></path>
            <path d="M100.432686,9.72329824 C103.848313,16.660827 101.594703,24.9113408 94.5169593,31.2633493 C88.2667126,36.852407 81.1009369,37.6331008 72.5970799,37.6331008 C72.0160714,37.6331008 71.4526683,37.5976147 70.9244788,37.5443856 L65.096784,49.0773619 C64.7798701,49.6451392 64.1636486,50 63.5122144,50 C63.2481195,50 62.9664182,49.9290278 62.7023233,49.8580557 C61.8220069,49.3435075 61.4874867,48.261182 61.9452512,47.4272591 L81.4002445,9.26197919 C81.8426733,8.38005027 82.9107686,8.02654986 83.7859022,8.47241399 C84.6610351,8.91827804 85.0118119,9.99466689 84.5693838,10.8765959 L72.6851117,34.0490067 C79.7276434,34.0135206 85.9426773,34.1554649 92.1577111,28.5841502 C97.9854062,23.3676964 99.9397082,16.7495422 97.2635463,11.3024289 C94.886692,6.47632184 91.2421821,1.88087436 79.9917382,4.11649746 C67.2271498,6.6360092 63.3361511,14.1235722 62.1565271,18.3641589 C60.7480208,23.3854394 61.9276449,27.8566855 63.7234904,29.5067883 C64.1921055,29.9378388 64.3969329,30.5880903 64.2608161,31.2125994 C64.1246993,31.8371085 63.6683176,32.3409974 63.0635857,32.5344559 C62.4588538,32.7279145 61.7976448,32.5815519 61.3290297,32.1505014 C58.1951032,29.2583857 57.1387234,23.1902659 58.7408994,17.4060347 C61.1353601,8.83614622 68.6356563,2.71479727 79.3050911,0.603375457 C90.2034085,-1.54353243 96.7353567,2.16476301 100.432686,9.72329824 Z" id="Fill-69" fill="#6DB2B7" fill-rule="nonzero"></path>
            <path d="M103.044649,28.1349495 C103.919532,28.4640861 104.388184,29.3987112 104.119884,30.2792711 C103.904837,30.9999039 103.99444,31.6502309 104.352852,32.2126759 C104.890469,33.0914963 106.037387,33.7066705 107.471034,33.9351639 C108.101714,34.0310447 108.632812,34.4486639 108.865376,35.0315796 C109.097939,35.6144953 108.996871,36.2747332 108.60003,36.7649654 C105.338484,40.8778447 104.621661,44.1997857 105.338484,45.6586274 C105.517689,45.9925791 105.84026,46.4319893 106.790051,46.4319893 C110.069518,46.4319893 111.556926,41.9675819 112.650082,40.157212 C113.154843,39.3175408 114.258049,39.0381833 115.114162,39.5332495 C115.970275,40.0283158 116.255104,41.1103343 115.750343,41.9500055 C115.248566,42.7936731 112.703844,50 106.790051,50 C104.693343,50 102.972967,48.9454156 102.094858,47.2053513 C100.768735,44.5161609 101.557241,40.7548098 104.281169,36.6419305 C103.331378,36.1849439 102.507031,35.5873461 101.879811,34.8842899 C100.786656,37.0286115 99.8010234,39.1377804 98.349456,41.3524077 C97.8100554,42.1823717 96.6867905,42.4263177 95.8405745,41.8972763 C94.9943578,41.3682349 94.7456352,40.2665433 95.2850365,39.4365793 C97.3996653,36.2376732 98.8691532,32.863003 100.123594,30.3495768 L100.786656,28.9961935 C101.191161,28.1712578 102.173492,27.7889309 103.044649,28.1173731 L103.044649,28.1349495 Z" id="Fill-71" fill="#6DB2B7" fill-rule="nonzero"></path>
            <path d="M123.086005,32.0180953 C125.840185,32.0180953 127.762914,33.7552381 127.884167,36.3428571 L127.884167,36.5238095 C127.884167,38.4057143 126.671635,41.0838095 123.276546,42.9295238 C121.353817,43.9609524 118.409097,45.0647619 115.654917,45.1914286 C116.001355,46.2771429 117.075312,46.82 117.97605,47.0914286 C123.259224,48.6295238 128.490433,43.9428571 130.828887,40.4142857 C131.378967,39.5898035 132.464705,39.3872656 133.253951,39.9619047 C134.043197,40.5365439 134.237078,41.6707558 133.686998,42.4952381 C129.910827,48.1952381 124.627653,51 119.985388,51 C118.946075,51 117.958728,50.8552381 117.040668,50.6380953 C113.905407,49.6971429 112,47.3447619 112,44.3047619 C112,39.0571429 117.491037,32 123.086005,32 L123.086005,32.0180953 Z M123.086005,35.6371429 C120.453079,35.6371429 117.525681,38.5866667 116.209218,41.5 C118.112225,41.2204653 119.956718,40.6087691 121.665611,39.6904762 C123.917456,38.4780953 124.402469,36.9761905 124.402469,36.5057143 C124.385147,36.252381 124.350503,35.6552381 123.086005,35.6552381 L123.086005,35.6371429 Z" id="Fill-73" fill="#6DB2B7" fill-rule="nonzero"></path>
            <path d="M152.200855,21.2026288 C153.187901,21.2026288 153.988059,21.9971932 153.988059,22.9773382 C153.988059,23.9574832 153.187901,24.7520476 152.200855,24.7520476 L143.622271,24.7697947 C140.101477,31.3539666 136.652171,37.6896793 135.222407,40.1920196 C133.667539,42.8185896 133.184994,45.1257118 133.917748,46.3502613 C134.453909,47.2731102 135.633465,47.432834 136.562811,47.4505811 L136.884508,47.4505811 C138.671713,47.4505811 141.995914,44.6465402 144.158432,41.3100865 C144.701307,40.4818642 145.817529,40.2474677 146.651583,40.7865474 C147.485637,41.3256271 147.721684,42.4340444 147.178809,43.2622669 C145.427348,45.9243311 141.030823,51 136.884508,51 L136.491323,51 C133.899876,51 131.898207,49.9884156 130.825883,48.1604649 C129.39612,45.7113659 129.825049,42.2506825 132.094799,38.3995631 L133.953492,35.0986035 L139.458083,24.7875418 L131.826718,24.7875418 C130.839672,24.7875418 130.039513,23.9929773 130.039513,23.0128323 C130.039513,22.0326874 130.839672,21.2381229 131.826718,21.2381229 L141.370393,21.2203758 L150.610242,3.95245313 C151.074154,3.08012418 152.16237,2.74640715 153.040841,3.20707526 C153.919311,3.66774337 154.255379,4.74835099 153.791467,5.62067999 C153.487642,6.2063341 149.680895,13.4294015 145.516708,21.2026288 L152.200855,21.2026288 Z" id="Fill-75" fill="#6DB2B7" fill-rule="nonzero"></path>
            <path d="M166.200545,21.2026288 C167.187761,21.2026288 167.988057,21.9971932 167.988057,22.9773382 C167.988057,23.9574832 167.187761,24.7520476 166.200545,24.7520476 L157.620484,24.7697947 C154.099084,31.3539666 150.667059,37.6896793 149.219174,40.1920196 C147.681913,42.8185896 147.199285,45.1257118 147.91429,46.3502613 C148.450543,47.2731102 149.630302,47.432834 150.559809,47.4505811 L150.881561,47.4505811 C152.669073,47.4505811 155.993847,44.6465402 158.156737,41.3100865 C158.507977,40.7743205 159.120425,40.465294 159.763379,40.4994144 C160.406333,40.5335348 160.982113,40.9056183 161.273827,41.4755046 C161.565542,42.045391 161.528873,42.7265009 161.177634,43.2622669 C159.425871,45.9243311 155.02859,51 150.899436,51 L150.488308,51 C147.91429,51 145.894401,49.9884156 144.839768,48.1604649 C143.391883,45.7113659 143.820886,42.2506825 146.091027,38.3995631 C146.537905,37.636438 147.181409,36.500624 147.95004,35.0986035 L148.003665,35.0098681 L153.473454,24.7875418 L145.8229,24.7875418 C144.835684,24.7875418 144.035387,23.9929773 144.035387,23.0128323 C144.035387,22.0326874 144.835684,21.2381229 145.8229,21.2381229 L155.386093,21.2203758 L164.609658,3.95245313 C165.07365,3.08012418 166.162053,2.74640715 167.040675,3.20707526 C167.919298,3.66774337 168.255423,4.74835099 167.791431,5.62067999 C167.487554,6.2063341 163.680152,13.4294015 159.515247,21.2026288 L166.200545,21.2026288 Z" id="Fill-77" fill="#6DB2B7" fill-rule="nonzero"></path>
            <path d="M236.984694,2.51606337 C238.648808,4.18830396 241.690735,9.06117707 233.996448,18.2315287 C226.946334,26.6107127 224.477004,26.6107127 219.932007,28.444783 C221.711965,29.276716 223.265188,30.5290644 224.45911,32.0949426 C225.944287,34.1627671 226.427417,36.590213 225.872712,39.2873753 C224.699159,44.3191041 221.058085,48.4048275 216.210119,50.1299675 C212.166145,51.6403784 208.104277,51.352681 205.366543,49.2488945 C204.577375,48.6344605 204.425904,47.4968858 205.026563,46.6955809 C205.624973,45.9069966 206.745762,45.7541466 207.531679,46.3539404 C209.303155,47.6845404 212.058783,47.8283891 214.939668,46.7315431 C218.73313,45.2930565 221.649801,42.092424 222.347655,38.568132 C222.687636,36.8779103 222.41923,35.4394239 221.542439,34.2167103 C219.520452,31.4116615 214.707049,30.2608723 213.025042,30.0630804 C212.036801,29.998531 211.287746,29.1411629 211.351982,28.1480952 C211.416218,27.1550275 212.269419,26.4023147 213.257661,26.4668641 C213.257661,26.4668641 215.726989,26.4129209 219.627814,24.6507748 C223.278127,22.9965153 224.816984,23.1943072 231.115563,16.7930421 C235.12375,12.0100744 236.447883,7.08325814 234.44379,5.08735804 C231.992355,2.62394986 224.280174,2.85770392 217.301634,8.84540408 C212.345082,13.0709583 212.881893,12.8372042 210.215733,16.4514016 C210.215733,20.1375234 209.786284,25.2261694 208.301108,31.735321 C206.243334,40.7798051 203.952941,49.1050459 198.388003,51.568454 C197.7816,51.8292878 197.132551,51.9755799 196.473378,52 C195.328182,52 194.576647,51.4246054 194.165092,50.9930594 C190.51478,47.2350134 196.544953,34.2706535 197.242807,32.7782238 C197.708043,31.8432075 198.137492,30.9261723 198.549046,30.0271183 C201.018376,24.7766424 203.201406,20.1375234 206.601208,15.3185935 C206.605047,13.5396176 206.406936,11.7660073 206.010716,10.0321555 C205.871671,9.57433846 205.920018,9.07970589 206.145048,8.6578234 C206.370078,8.23594085 206.753216,7.92163246 207.209593,7.78452028 C207.665185,7.64479634 208.157413,7.69337967 208.577245,7.9195087 C208.997078,8.14563772 209.309858,8.53064673 209.446304,8.98925276 C209.482092,9.07915813 209.678922,9.78042034 209.875753,11.0930393 C212.273508,8.28799056 211.235673,9.29493112 214.957561,6.09429861 C222.437124,-0.306966446 232.511272,-1.94324488 236.966801,2.51606337 L236.984694,2.51606337 Z M206.22544,22.6728558 C204.668689,25.4779046 203.308768,28.3728587 201.805698,31.5555102 L200.499458,34.3425779 C197.045977,41.5889537 196.24076,46.929335 196.688103,48.3318594 L196.938614,48.2239729 C200.964695,46.4618268 203.022469,38.7119807 204.793945,30.9261723 C205.509692,27.8334263 205.957034,25.0823208 206.22544,22.6728558 Z" id="Fill-79" fill="#6DB2B7" fill-rule="nonzero"></path>
            <path d="M234.995653,33.8696612 C235.403877,34.1236546 235.694349,34.5299889 235.802905,34.998907 C235.911462,35.467825 235.829169,35.9607395 235.574205,36.3687681 C234.525578,38.0529488 231.777451,43.0873815 231.596653,46.2022104 C231.596653,46.8541513 231.723212,47.3249975 232.048647,47.6690774 C232.446403,48.1037047 233.187674,48.3572373 234.037424,48.3572373 C235.773083,48.3572373 238.810487,46.6368376 241.612854,41.7653902 C241.935818,41.2025097 242.53405,40.854969 243.182202,40.8536832 C243.830354,40.8523975 244.429955,41.197562 244.755143,41.7591567 C245.080331,42.3207514 245.0817,43.0134567 244.758736,43.5763372 C241.721333,48.846193 237.70762,51.9972408 234.019344,51.9972408 C232.300397,52.0481009 230.635196,51.3940086 229.408999,50.1862938 C228.685807,49.4438055 227.872217,48.1037047 228.016855,46.0211157 C228.233813,41.3126534 232.301765,34.7208063 232.482562,34.4310548 C232.739172,34.0200958 233.14955,33.7293304 233.62187,33.6238198 C234.094191,33.5183092 234.589026,33.606861 234.995653,33.8696612 Z M238.105375,24 C239.37096,24 240.347269,24.9416924 240.347269,26.155027 C240.347269,27.4770183 239.226322,28.5092581 237.798019,28.5092581 C236.478195,28.5092581 235.501887,27.6037845 235.501887,26.3542311 C235.501887,25.6660712 235.827322,25.0141303 236.405876,24.5432841 C236.87595,24.1810947 237.454503,24 238.105375,24 Z" id="Fill-81" fill="#6DB2B7" fill-rule="nonzero"></path>
            <path d="M250.392664,28.1406984 C251.303366,28.4697485 251.791206,29.4041278 251.511921,30.2844563 C251.28807,31.0048995 251.362687,31.6550555 251.754427,32.2173527 C252.314056,33.095942 253.507929,33.7109545 255.000272,33.9393877 C255.656774,34.0352433 256.209616,34.4527527 256.451701,35.0355152 C256.693787,35.6182776 256.58858,36.2783419 256.175492,36.7684453 C252.780413,40.8802431 252.015587,44.2013107 252.780413,45.6597689 C252.966955,45.9936328 253.302732,46.4329275 254.272755,46.4329275 C257.686488,46.4329275 261.380036,41.7236889 262.517948,39.9313667 C262.854506,39.3883375 263.47305,39.0556905 264.140577,39.0587308 C264.808104,39.061771 265.423204,39.4000365 265.754172,39.9461059 C266.085141,40.4921754 266.081697,41.1630879 265.745138,41.7061171 C265.222818,42.5495628 260.428668,50 254.291409,50 C252.090204,50 250.318048,48.9456929 249.403988,47.2060861 C248.023571,44.5176028 248.844359,40.7572407 251.661155,36.6454427 C250.672479,36.1885763 249.833036,35.5911356 249.161482,34.8882641 C248.042225,37.0320221 247.016239,39.1406363 245.486588,41.3546813 C244.925104,42.1844271 243.75585,42.428309 242.874989,41.8994067 C241.994127,41.3705044 241.735221,40.2691025 242.296706,39.4393567 C244.53522,36.2588635 246.046217,32.8675088 247.333362,30.3547434 L248.023571,29.0017159 C248.445363,28.1678179 249.480564,27.783909 250.392664,28.1231266 L250.392664,28.1406984 Z" id="Fill-83" fill="#6DB2B7" fill-rule="nonzero"></path>
            <path d="M275.614047,43.3401095 C274.765666,44.9887497 274.500546,46.3656361 274.854039,47.2895993 C275.083808,47.9236917 275.578698,48.2316794 275.737769,48.3041472 C277.31081,48.6483687 280.209447,46.6917408 283.284829,41.5284169 C283.613184,40.9717772 284.206311,40.6369804 284.840784,40.6501412 C285.475257,40.663302 286.054683,41.0224209 286.360801,41.5922214 C286.666918,42.1620218 286.653218,42.8559375 286.324862,43.4125772 C283.037384,48.9563565 279.396414,52 276.108936,52 C275.614047,52 275.154507,51.9275323 274.694967,51.7825969 L274.535896,51.7825969 C274.3238,51.6376615 272.379593,50.8948675 271.531212,48.5940179 L271.442838,48.3222641 C269.180488,50.6412306 266.706043,51.9275323 264.567414,51.9275323 C263.824259,51.9455286 263.088685,51.7710534 262.428786,51.4202584 C261.33296,50.8223998 259.07061,49.0288242 260.41388,43.8292665 C261.262262,40.6044537 265.133002,36.2201577 266.670693,34.6258682 C269.675377,31.5459908 273.44007,30.3865076 276.073587,31.7271601 C276.480103,31.9445631 277.08104,32.3431355 277.611278,33.0134618 L289.64769,8.9723013 C290.106477,8.08179389 291.182671,7.74112254 292.051437,8.21139048 C292.920203,8.68165849 293.252557,9.78478485 292.79377,10.6752923 L275.614047,43.3401095 Z M264.037176,48.1592117 C264.814859,48.5577841 267.377677,47.8874578 270.064219,44.427125 C271.853783,42.1693271 273.534869,39.8234187 275.101483,37.3977578 C275.207531,36.636847 275.24288,35.3867791 274.482872,34.9882067 C274.253102,34.8795052 273.970308,34.8070374 273.652165,34.8070374 C272.48564,34.8070374 270.753528,35.5860652 269.198163,37.1984716 C267.837217,38.6115919 264.496715,42.4342632 263.86043,44.8075805 C263.330191,46.7823254 263.577636,47.9236917 264.037176,48.1592117 Z" id="Fill-85" fill="#6DB2B7" fill-rule="nonzero"></path>
            <path d="M172.190291,54.126549 L172.370692,53.7912129 L174.246869,50.3319565 L178.125504,43.1134059 L178.666709,42.1073977 C180.188399,39.5980694 181.573411,37.0117832 182.815946,34.3593691 C183.254331,33.4821012 182.882796,32.4232538 181.986099,31.9943672 C181.089401,31.5654807 180.007102,31.9289657 179.568717,32.8062336 L175.50968,40.3601202 L175.329279,40.6248592 C174.35511,42.2309425 171.703207,46.5373639 168.870901,46.5373639 C168.636379,46.5373639 168.401857,46.5197146 168.149295,46.4491175 C167.247287,46.219677 166.922564,45.8313932 166.922564,44.9312805 C166.922564,44.0135186 167.283367,42.8133684 168.059094,41.2778821 C168.81668,39.7314748 169.653607,38.2234835 170.566677,36.7596695 C170.96356,35.7889599 171.180042,34.8535486 171.180042,34.0063838 C171.180042,31.6413819 169.556428,30 167.211206,30 C164.216539,30 162.232122,33.4416072 158.245247,40.3071724 L158.173086,40.4660158 C157.923344,40.8726971 157.855318,41.361888 157.984933,41.819061 C158.114549,42.2762339 158.430425,42.6612481 158.858612,42.8839654 C159.276677,43.1182301 159.773154,43.1791602 160.23741,43.0531785 C160.701667,42.9271968 161.095126,42.6247717 161.330114,42.2132933 L161.420315,42.0368006 C163.657294,38.1892603 166.182917,33.8122418 167.229246,33.5475028 C167.445728,33.5475028 167.553969,33.5475028 167.553969,34.0063838 C167.553969,34.2534735 167.499849,34.6770559 167.247287,35.2771311 C166.958644,35.7536613 165.984476,37.3773939 164.775785,39.7776943 C164.414982,40.5013143 163.296492,42.7074728 163.296492,44.9312805 C163.296492,47.4551258 164.739705,49.2906497 167.265327,49.9260233 C168.293616,50.1378145 169.376026,50.1378145 170.368235,49.9260233 L157.198917,74.3702594 C156.765953,75.2174243 157.054596,76.3646265 157.920524,76.7882086 C158.209166,76.9294026 158.497809,77 158.804492,77 C159.453937,77 160.103383,76.6470146 160.392026,76.011641 L172.190291,54.126549 Z" id="Fill-87" fill="#6DB2B7" fill-rule="nonzero"></path>
            <polygon id="Fill-90" fill="#C35F45" fill-rule="nonzero" points="165.219072 100 163 100 163 85 165.219072 85 165.219072 91.4367816 167.744846 91.4367816 167.744846 85 170 85 170 100 167.744846 100 167.744846 93.5823755 165.219072 93.5823755"></polygon>
            <path d="M172,88.6891389 C172,86.3483145 173.235294,85 175.5,85 C177.745989,85 179,86.3483145 179,88.6891389 L179,96.3108611 C179,98.6704123 177.764706,100 175.5,100 C173.235294,100 172,98.6704123 172,96.3108611 L172,88.6891389 Z M174.302139,96.4606743 C174.302139,97.5093632 174.770053,97.9026216 175.5,97.9026216 C176.229947,97.9026216 176.697861,97.5093632 176.697861,96.4606743 L176.697861,88.5393257 C176.697861,87.4906368 176.229947,87.0973784 175.5,87.0973784 C174.751337,87.0973784 174.302139,87.4906368 174.302139,88.5393257 L174.302139,96.4606743 Z" id="Fill-91" fill="#C35F45" fill-rule="nonzero"></path>
            <polygon id="Fill-93" fill="#C35F45" fill-rule="nonzero" points="180 85 187 85 187 87.1455939 184.642105 87.1455939 184.642105 100 182.376316 100 182.376316 87.1455939 180 87.1455939"></polygon>
            <path d="M154,113.363296 L154,115.310861 C154,117.651685 152.798365,119 150.490463,119 C148.201635,119 147,117.651685 147,115.310861 L147,107.689139 C147,105.348315 148.201635,104 150.490463,104 C152.798365,104 154,105.348315 154,107.689139 L154,109.112359 L151.787466,109.112359 L151.787466,107.539326 C151.787466,106.490637 151.310627,106.097378 150.566758,106.097378 C149.803815,106.097378 149.346049,106.490637 149.346049,107.539326 L149.346049,115.460674 C149.346049,116.509363 149.822889,116.883895 150.566758,116.883895 C151.310627,116.883895 151.787466,116.509363 151.787466,115.460674 L151.787466,113.363296 L154,113.363296 Z" id="Fill-94" fill="#C35F45" fill-rule="nonzero"></path>
            <polygon id="Fill-96" fill="#C35F45" fill-rule="nonzero" points="157.219072 119 155 119 155 104 157.219072 104 157.219072 110.436782 159.744846 110.436782 159.744846 104 162 104 162 119 159.744846 119 159.744846 112.582375 157.219072 112.582375"></polygon>
            <polygon id="Fill-97" fill="#C35F45" fill-rule="nonzero" points="165 119 168 119 168 104 165 104"></polygon>
            <path d="M177,113.363296 L177,115.310861 C177,117.651685 175.798365,119 173.490463,119 C171.201635,119 170,117.651685 170,115.310861 L170,107.689139 C170,105.348315 171.201635,104 173.490463,104 C175.798365,104 177,105.348315 177,107.689139 L177,109.112359 L174.787466,109.112359 L174.787466,107.539326 C174.787466,106.490637 174.310627,106.097378 173.566758,106.097378 C172.803815,106.097378 172.346049,106.490637 172.346049,107.539326 L172.346049,115.460674 C172.346049,116.509363 172.822889,116.883895 173.566758,116.883895 C174.310627,116.883895 174.787466,116.509363 174.787466,115.460674 L174.787466,113.363296 L177,113.363296 Z" id="Fill-98" fill="#C35F45" fill-rule="nonzero"></path>
            <polygon id="Fill-100" fill="#C35F45" fill-rule="nonzero" points="182.164619 113.022988 181.417691 114.402299 181.417691 119 179 119 179 104 181.417691 104 181.417691 110.532567 184.582309 104 187 104 183.658477 110.704981 187 119 184.523341 119"></polygon>
            <polygon id="Fill-101" fill="#C35F45" fill-rule="nonzero" points="191.196429 110.321839 194.214286 110.321839 194.214286 112.467433 191.196429 112.467433 191.196429 116.873563 195 116.873563 195 119 189 119 189 104 195 104 195 106.145594 191.196429 106.145594"></polygon>
            <polygon id="Fill-102" fill="#C35F45" fill-rule="nonzero" points="196.969309 108.137931 196.969309 119 195 119 195 104 197.757033 104 200.030691 112.984674 200.030691 104 202 104 202 119 199.726343 119"></polygon>
            <path d="M125.957577,157.407821 L125.957577,162.854748 L124,162.854748 L124,150.145252 L125.957577,150.145252 L125.957577,155.592179 L128.182096,155.592179 L128.182096,150.145252 L130.175265,150.145252 L130.175265,162.854748 L128.182096,162.854748 L128.182096,157.407821 L125.957577,157.407821 Z M133.467553,153.068436 L133.467553,159.931564 C133.467553,160.839386 133.859069,161.202514 134.481934,161.202514 C135.1048,161.202514 135.496315,160.839386 135.496315,159.931564 L135.496315,153.086592 C135.496315,152.178771 135.1048,151.833799 134.481934,151.833799 C133.859069,151.833799 133.467553,152.196927 133.467553,153.104748 L133.467553,153.068436 Z M131.509976,159.804469 L131.509976,153.195531 C131.509976,151.162011 132.559949,150 134.481934,150 C136.403919,150 137.453892,151.162011 137.453892,153.195531 L137.453892,159.804469 C137.453892,161.837989 136.386122,163 134.481934,163 C132.559949,163 131.509976,161.837989 131.509976,159.804469 Z M143.824914,162.854748 L143.113069,156.082402 L142.401222,162.854748 L139.731799,162.854748 L138.325903,150.145252 L140.230092,150.145252 L141.297861,160.167598 L142.223261,150.145252 L144.109653,150.145252 L145.088441,160.240223 L146.102822,150.145252 L147.811253,150.145252 L146.423153,162.854748 L143.824914,162.854748 Z M198.370124,157.407821 L198.370124,162.854748 L196.412547,162.854748 L196.412547,150.145252 L198.370124,150.145252 L198.370124,155.592179 L200.594643,155.592179 L200.594643,150.145252 L202.587812,150.145252 L202.587812,162.854748 L200.594643,162.854748 L200.594643,157.407821 L198.370124,157.407821 Z M205.862305,153.068436 L205.862305,159.931564 C205.862305,160.839386 206.25382,161.202514 206.876686,161.202514 C207.49955,161.202514 207.891066,160.839386 207.891066,159.931564 L207.891066,153.086592 C207.891066,152.178771 207.49955,151.833799 206.876686,151.833799 C206.25382,151.833799 205.862305,152.196927 205.862305,153.104748 L205.862305,153.068436 Z M203.904728,159.804469 L203.904728,153.195531 C203.904728,151.162011 204.972497,150 206.876686,150 C208.79867,150 209.848643,151.162011 209.848643,153.195531 L209.848643,159.804469 C209.848643,161.837989 208.79867,163 206.876686,163 C204.954701,163 203.904728,161.837989 203.904728,159.804469 Z M210.613878,151.960894 L210.613878,150.145252 L216.66457,150.145252 L216.66457,151.960894 L214.618012,151.960894 L214.618012,162.854748 L212.660435,162.854748 L212.660435,151.960894 L210.613878,151.960894 Z M220.757685,160.040503 L219.013662,160.040503 C218.935425,159.788207 218.89933,159.524285 218.906885,159.259777 C218.906885,156.481844 221.042423,156.227653 221.042423,153.086592 C221.042423,152.178771 220.6865,151.815642 220.063634,151.815642 C219.44077,151.815642 219.084846,152.178771 219.084846,153.086592 L219.084846,154.448324 L217.234047,154.448324 L217.234047,153.195531 C217.234047,151.162011 218.212835,150 220.117023,150 C222.021211,150 223,151.162011 223,153.195531 C223,156.5 220.6865,157.00838 220.6865,159.332402 C220.6865,159.568436 220.6865,159.804469 220.757685,160.058659 L220.757685,160.040503 Z M218.924681,160.948324 L220.811073,160.948324 L220.811073,162.854748 L218.924681,162.854748 L218.924681,160.930167 L218.924681,160.948324 Z" id="HOW-HOT?" fill="#C35F45" fill-rule="nonzero"></path>
            <path d="M0,161 L115,161" id="Stroke-64" stroke="#C35F45" stroke-width="0.5"></path>
            <path d="M229,161 L344,161" id="Stroke-65" stroke="#C35F45" stroke-width="0.5"></path>
        </g>
    </g>
</svg>