<?xml version="1.0" encoding="UTF-8"?>
<svg width="193px" height="95px" viewBox="0 0 193 95" version="1.1" xmlns="http://www.w3.org/2000/svg" xmlns:xlink="http://www.w3.org/1999/xlink">
    <!-- Generator: Sketch 48.2 (47327) - http://www.bohemiancoding.com/sketch -->
    <title>Group 89</title>
    <desc>Created with Sketch.</desc>
    <defs></defs>
    <g id="Page-1" stroke="none" stroke-width="1" fill="none" fill-rule="evenodd">
        <g id="PB---Menu---Final" transform="translate(-36.000000, -42.000000)">
            <g id="Group-89" transform="translate(36.000000, 42.000000)">
                <path d="M98.4016424,94.711 C99.9886424,92.887 99.8236424,90.472 98.7416424,88.854 C98.6686424,89.094 99.0896424,92.017 96.2896424,91.652 C94.7646424,91.453 94.1926424,93.491 95.0916424,94.702 C91.9846424,94.224 89.8316424,89.72 91.6896424,86.586 C91.7146424,86.88 91.7086424,87.159 91.7646424,87.423 C92.0266424,88.652 93.1096424,89.493 94.1816424,89.319 C95.3886424,89.122 96.2846424,87.907 96.0706424,86.613 C95.9546424,85.906 95.6596424,85.228 95.4296424,84.543 C94.6186424,82.136 95.7376424,79.702 98.0226424,79 C98.0296424,79.11 97.0236424,81.426 99.1196424,83.397 C99.8236424,84.175 100.597642,84.897 101.221642,85.738 C103.552642,88.878 102.007642,93.72 98.4016424,94.711" id="Fill-67" fill="#C35F45"></path>
                <path d="M56.3423,5.5164 C58.2843,9.4314 56.9953,14.0844 52.9783,17.6564 C49.4343,20.8084 45.3553,21.2454 40.5273,21.2454 C40.1993,21.2454 39.8823,21.2314 39.5773,21.2024 L36.2673,27.6924 C36.0893,28.0154 35.7363,28.2164 35.3703,28.2164 C35.2163,28.2164 35.0603,28.1764 34.9143,28.1364 C34.4193,27.8544 34.2223,27.2494 34.4753,26.7654 L45.5313,5.2564 C45.7833,4.7614 46.3903,4.5654 46.8853,4.8174 C47.3793,5.0694 47.5763,5.6754 47.3233,6.1714 L40.5813,19.2344 C44.5823,19.2104 48.1133,19.2914 51.6413,16.1534 C54.9503,13.2104 56.0613,9.4774 54.5403,6.4104 C53.1913,3.6914 51.1233,1.0984 44.7303,2.3564 C37.4803,3.7814 35.2723,8.0014 34.6013,10.3904 C33.8083,13.2154 34.4663,15.7354 35.4893,16.6734 C35.8993,17.0484 35.9273,17.6844 35.5513,18.0944 C35.1763,18.5044 34.5403,18.5314 34.1293,18.1564 C32.3503,16.5264 31.7483,13.1084 32.6643,9.8464 C34.0193,5.0244 38.2763,1.5744 44.3433,0.3824 C50.5253,-0.8336 54.2333,1.2644 56.3433,5.5174 L56.3423,5.5164 Z" id="Fill-69" fill="#6DB2B7"></path>
                <path d="M57.5147,16.0582 C58.0017,16.2472 58.2617,16.7782 58.1147,17.2792 C57.9937,17.6902 58.0357,18.0632 58.2387,18.3882 C58.5427,18.8732 59.1787,19.2282 59.9847,19.3612 C60.3347,19.4192 60.6287,19.6572 60.7577,19.9872 C60.8867,20.3182 60.8317,20.6912 60.6137,20.9712 C58.7927,23.3122 58.3867,25.1972 58.7927,26.0262 C58.8867,26.2182 59.0717,26.4722 59.6017,26.4722 C61.4277,26.4722 62.2617,23.9342 62.8687,22.9022 C63.1507,22.4242 63.7667,22.2632 64.2457,22.5452 C64.7247,22.8262 64.8857,23.4412 64.6047,23.9202 C64.3227,24.4022 62.8967,28.4992 59.6017,28.4992 C58.4277,28.4992 57.4737,27.8942 56.9847,26.9102 C56.2387,25.3832 56.6837,23.2362 58.1977,20.8962 C57.6667,20.6432 57.2127,20.3042 56.8577,19.8942 C56.2487,21.1192 55.6987,22.3202 54.8877,23.5832 C54.5877,24.0512 53.9647,24.1862 53.4977,23.8852 C53.0147,23.5852 52.8937,22.9622 53.1757,22.4952 C54.3647,20.6742 55.1867,18.7492 55.8727,17.3232 C56.0157,17.0262 56.1407,16.7662 56.2457,16.5512 C56.4767,16.0822 57.0267,15.8672 57.5147,16.0582 Z" id="Fill-71" fill="#6DB2B7"></path>
                <path d="M68.9111,17.946 C70.4961,17.946 71.6071,18.907 71.6751,20.337 C71.6771,20.367 71.6771,20.399 71.6771,20.434 C71.6771,21.478 70.9781,22.956 69.0151,23.975 C67.9091,24.549 66.2061,25.16 64.6131,25.232 C64.8271,25.837 65.4351,26.135 65.9631,26.282 C69.0071,27.129 72.0291,24.54 73.3781,22.591 C73.6941,22.134 74.3211,22.021 74.7771,22.336 C75.2341,22.653 75.3481,23.279 75.0331,23.736 C72.8481,26.894 69.8031,28.439 67.1181,28.439 C66.5171,28.439 65.9451,28.359 65.4231,28.238 C63.6071,27.715 62.5061,26.417 62.5061,24.749 C62.5061,21.841 65.6811,17.946 68.9121,17.946 L68.9111,17.946 Z M68.9111,19.958 C67.3931,19.958 65.6971,21.58 64.9381,23.189 C66.0911,23.053 67.3101,22.593 68.0881,22.189 C69.3821,21.517 69.6661,20.694 69.6661,20.433 C69.6591,20.29 69.6431,19.958 68.9111,19.958 Z" id="Fill-73" fill="#6DB2B7"></path>
                <path d="M85.2995,11.5682 C85.8545,11.5682 86.3045,12.0172 86.3045,12.5722 C86.3045,13.1282 85.8545,13.5792 85.2995,13.5792 L80.4955,13.5842 C78.5275,17.2922 76.6095,20.8622 75.7925,22.2692 C74.9345,23.7472 74.6635,25.0452 75.0685,25.7412 C75.3675,26.2572 76.0315,26.3522 76.5495,26.3552 C76.5805,26.3552 76.6105,26.3572 76.6415,26.3602 C76.6715,26.3572 76.7025,26.3552 76.7325,26.3552 C77.7275,26.3552 79.5885,24.7752 80.7965,22.9042 C81.0975,22.4372 81.7205,22.3042 82.1865,22.6052 C82.6535,22.9062 82.7875,23.5282 82.4865,23.9952 C81.5105,25.5072 79.0515,28.3582 76.7335,28.3582 C76.7045,28.3582 76.6745,28.3562 76.6455,28.3542 C76.6165,28.3562 76.5865,28.3582 76.5575,28.3582 L76.5095,28.3582 C75.0635,28.3582 73.9355,27.7942 73.3425,26.7532 C72.5375,25.3832 72.7795,23.4332 74.0535,21.2592 C74.3015,20.8312 74.6575,20.1912 75.0905,19.4012 C75.0958333,19.3885333 76.1238333,17.4505333 78.1745,13.5872 L73.8975,13.5932 C73.3425,13.5932 72.8995,13.1432 72.8995,12.5872 C72.8995,12.0322 73.3425,11.5822 73.8965,11.5822 L79.2435,11.5752 L84.4095,1.8492 C84.6695,1.3602 85.2755,1.1732 85.7665,1.4322 C86.2565,1.6902 86.4455,2.2972 86.1885,2.7882 C86.0155,3.1182 83.8855,7.1832 81.5625,11.5722 L85.2995,11.5682 Z" id="Fill-75" fill="#6DB2B7"></path>
                <path d="M92.8719,11.5682 C93.4269,11.5682 93.8769,12.0172 93.8769,12.5722 C93.8769,13.1282 93.4269,13.5792 92.8719,13.5792 L88.0679,13.5842 C86.0989,17.2922 84.1819,20.8622 83.3649,22.2692 C82.5069,23.7472 82.2359,25.0452 82.6409,25.7412 C82.9399,26.2572 83.6039,26.3522 84.1219,26.3552 C84.1529,26.3552 84.1829,26.3572 84.2139,26.3602 C84.2439,26.3572 84.2749,26.3552 84.3049,26.3552 C85.2999,26.3552 87.1609,24.7752 88.3689,22.9042 C88.6699,22.4372 89.2929,22.3042 89.7589,22.6052 C90.2259,22.9062 90.3599,23.5282 90.0589,23.9952 C89.0829,25.5072 86.6239,28.3582 84.3059,28.3582 C84.2769,28.3582 84.2469,28.3562 84.2179,28.3542 C84.1889,28.3562 84.1599,28.3582 84.1299,28.3582 L84.0819,28.3582 C82.6359,28.3582 81.5079,27.7942 80.9159,26.7532 C80.1099,25.3832 80.3519,23.4332 81.6259,21.2592 C81.8739,20.8312 82.2299,20.1912 82.6629,19.4012 C82.6709,19.3822 82.6799,19.3642 82.6889,19.3462 L85.7469,13.5872 L81.4699,13.5932 C80.9149,13.5932 80.4719,13.1432 80.4719,12.5872 C80.4719,12.0322 80.9149,11.5822 81.4679,11.5822 L86.8159,11.5752 L91.9819,1.8492 C92.2419,1.3602 92.8479,1.1732 93.3389,1.4322 C93.8289,1.6902 94.0179,2.2972 93.7609,2.7882 C93.5879,3.1182 91.4579,7.1832 89.1349,11.5722 L92.8719,11.5682 Z" id="Fill-77" fill="#6DB2B7"></path>
                <path d="M132.4683,1.4016 C133.3993,2.3286 135.1003,5.0366 130.7953,10.1376 C126.8573,14.8036 125.4793,14.7996 122.9393,15.8236 C123.8803,16.2906 124.8133,16.9446 125.4683,17.8516 C126.2963,18.9976 126.5623,20.3426 126.2603,21.8486 C125.7283,24.5046 123.6593,26.8126 120.8603,27.8756 C118.5983,28.7206 116.3333,28.5596 114.8033,27.3916 C114.3613,27.0476 114.2743,26.4156 114.6103,25.9736 C114.9463,25.5316 115.5783,25.4446 116.0193,25.7816 C116.9953,26.5206 118.5383,26.5996 120.1483,25.9896 C122.2723,25.1866 123.8973,23.4056 124.2883,21.4536 C124.4783,20.5056 124.3313,19.7136 123.8373,19.0306 C122.7123,17.4726 120.0183,16.8326 119.0763,16.7166 C118.5463,16.6516 118.1583,16.1846 118.1943,15.6516 C118.2293,15.1186 118.6723,14.7076 119.2083,14.7126 C119.2153,14.7126 120.5923,14.6946 122.7743,13.7066 C124.8053,12.7856 125.6673,12.8976 129.1923,9.3356 C131.4313,6.6836 132.1663,3.9396 131.0493,2.8266 C129.6763,1.4596 125.3673,1.5946 121.4673,4.9166 C118.7023,7.2716 119.0023,7.1426 117.5113,9.1486 C117.5083,11.2046 117.2683,14.0336 116.4423,17.6516 C115.2933,22.6796 114.0053,27.3056 110.8973,28.6796 C110.4863,28.8406 110.1303,28.9206 109.8253,28.9206 C109.1873,28.9206 108.7703,28.5996 108.5433,28.3576 C106.4993,26.2746 109.8733,19.0506 110.2633,18.2346 C110.5153,17.7086 110.7563,17.1976 110.9933,16.6956 C112.3683,13.7796 113.5883,11.1936 115.4873,8.5196 C115.4383,6.5736 115.1633,5.5966 115.1573,5.5776 C115.0013,5.0466 115.3033,4.4866 115.8333,4.3276 C116.3633,4.1686 116.9213,4.4656 117.0823,4.9956 C117.0983,5.0466 117.2133,5.4366 117.3193,6.1736 C118.6603,4.6066 118.0763,5.1626 120.1623,3.3856 C124.3383,-0.1724 129.9733,-1.0804 132.4673,1.4026 L132.4683,1.4016 Z M115.2813,12.6096 C114.4083,14.1706 113.6483,15.7816 112.8123,17.5536 C112.5743,18.0576 112.3313,18.5726 112.0793,19.1016 C110.1543,23.1296 109.6973,26.1046 109.9483,26.8766 C109.9853,26.8646 110.0323,26.8476 110.0903,26.8226 C112.3383,25.8386 113.4923,21.5306 114.4803,17.2036 C114.8743,15.4786 115.1263,13.9486 115.2813,12.6096 Z" id="Fill-79" fill="#6DB2B7"></path>
                <path d="M131.3663,18.3459 C131.8373,18.6409 131.9803,19.2609 131.6853,19.7319 C131.1063,20.6599 129.5833,23.4419 129.4993,25.1599 C129.4813,25.5199 129.5583,25.7849 129.7353,25.9709 C129.9613,26.2079 130.3713,26.3499 130.8323,26.3499 C131.8013,26.3499 133.4803,25.3969 135.0253,22.7119 C135.3023,22.2309 135.9193,22.0659 136.3993,22.3429 C136.8803,22.6199 137.0463,23.2349 136.7703,23.7159 C135.0943,26.6249 132.8763,28.3589 130.8333,28.3589 C129.8173,28.3589 128.8863,27.9959 128.2793,27.3519 C127.8723,26.9469 127.4293,26.2149 127.5103,25.0599 C127.6303,22.4669 129.8843,18.8189 129.9803,18.6659 C130.2763,18.1949 130.8963,18.0529 131.3663,18.3469 L131.3663,18.3459 Z M133.0883,12.8979 C133.7873,12.8979 134.3343,13.4219 134.3343,14.0899 C134.3343,14.8219 133.7103,15.3949 132.9153,15.3949 C132.1913,15.3949 131.6473,14.8819 131.6473,14.2029 C131.6473,13.8179 131.8293,13.4559 132.1473,13.2079 C132.4083,13.0049 132.7343,12.8979 133.0883,12.8979 Z" id="Fill-81" fill="#6DB2B7"></path>
                <path d="M139.3812,16.1995 C139.8672,16.3885 140.1282,16.9195 139.9812,17.4205 C139.8602,17.8315 139.9022,18.2045 140.1052,18.5295 C140.4102,19.0145 141.0462,19.3695 141.8512,19.5025 C142.2012,19.5605 142.4952,19.7985 142.6242,20.1285 C142.7532,20.4595 142.6982,20.8325 142.4812,21.1125 C140.6592,23.4535 140.2532,25.3385 140.6592,26.1675 C140.7532,26.3595 140.9382,26.6145 141.4682,26.6145 C143.2942,26.6145 145.2712,23.9345 145.8782,22.9025 C146.1602,22.4235 146.7762,22.2635 147.2552,22.5455 C147.7342,22.8255 147.8952,23.4415 147.6142,23.9205 C147.3322,24.4015 144.7632,28.6405 141.4682,28.6405 C140.2942,28.6405 139.3402,28.0365 138.8512,27.0515 C138.1052,25.5245 138.5502,23.3775 140.0642,21.0385 C139.5332,20.7845 139.0792,20.4455 138.7232,20.0355 C138.1152,21.2605 137.5652,22.4615 136.7542,23.7245 C136.4542,24.1925 135.8322,24.3275 135.3632,24.0265 C134.8812,23.7265 134.7602,23.1035 135.0422,22.6365 C136.2312,20.8155 137.0522,18.8905 137.7392,17.4645 C137.8822,17.1675 138.0072,16.9075 138.1122,16.6925 C138.3422,16.2235 138.8932,16.0085 139.3802,16.1995 L139.3812,16.1995 Z" id="Fill-83" fill="#6DB2B7"></path>
                <path d="M154.1641,23.6184 C153.6831,24.5344 153.5321,25.2874 153.7271,25.7974 C153.8611,26.1454 154.1401,26.3154 154.2241,26.3594 C155.1171,26.5454 156.7641,25.4734 158.5011,22.6154 C158.7891,22.1404 159.4081,21.9904 159.8831,22.2774 C160.3571,22.5664 160.5081,23.1854 160.2201,23.6594 C158.3601,26.7204 156.2971,28.3984 154.4371,28.3984 C154.1641,28.3984 153.8951,28.3584 153.6321,28.2774 L153.5531,28.2774 C153.4291,28.1964 152.3331,27.7944 151.8501,26.5174 C151.8311,26.4674 151.8131,26.4174 151.7971,26.3684 C150.5211,27.6474 149.1221,28.3584 147.9121,28.3584 C147.4781,28.3584 147.0691,28.2774 146.6981,28.0764 C146.0801,27.7544 144.7911,26.7564 145.5561,23.8934 C146.0401,22.1134 148.2271,19.6914 149.1001,18.8124 C150.7921,17.1094 152.9301,16.4684 154.4211,17.2154 C154.6451,17.3274 154.9881,17.5454 155.2881,17.9234 L162.1031,4.6514 C162.3611,4.1614 162.9701,3.9714 163.4621,4.2294 C163.9531,4.4884 164.1431,5.0964 163.8841,5.5874 L154.1641,23.6184 Z M147.6081,26.2814 C148.0461,26.5014 149.4981,26.1264 151.0201,24.2184 C151.4761,23.6474 153.1221,21.5644 153.8271,20.4014 C153.8401,20.3794 153.8531,20.3584 153.8681,20.3384 C153.9261,19.9244 153.9511,19.2304 153.5181,19.0124 C153.3911,18.9494 153.2331,18.9174 153.0501,18.9174 C152.3881,18.9174 151.4111,19.3404 150.5281,20.2304 C149.7551,21.0084 147.8671,23.1164 147.5121,24.4224 C147.2141,25.5154 147.3531,26.1524 147.6071,26.2814 L147.6081,26.2814 Z" id="Fill-85" fill="#6DB2B7"></path>
                <path d="M96.1048,30.6591 L96.2038,30.4711 L97.2358,28.5111 L99.3898,24.4201 L99.6898,23.8501 C100.9298,21.8061 101.9498,19.5591 101.9928,19.4641 C102.2168,18.9681 102.0068,18.3841 101.5178,18.1451 C101.0288,17.9061 100.4388,18.0991 100.1868,18.5811 L97.9368,22.8591 L97.8488,23.0051 C97.2958,23.9241 95.8288,26.3641 94.2628,26.3641 C94.1318,26.3641 93.9988,26.3471 93.8668,26.3131 C93.3548,26.1801 93.1828,25.9631 93.1828,25.4521 C93.1828,24.9261 93.3878,24.2421 93.8098,23.3821 C94.5298,21.9131 95.1108,20.9851 95.1168,20.9761 C95.1468,20.9271 95.1738,20.8761 95.1958,20.8231 C95.4238,20.2691 95.5398,19.7441 95.5398,19.2621 C95.5398,17.9221 94.6388,16.9861 93.3488,16.9861 C91.6848,16.9861 90.5798,18.9371 88.3658,22.8261 L88.3258,22.9171 C88.0438,23.4011 88.2048,24.0141 88.7058,24.2881 C89.1868,24.5601 89.8028,24.3921 90.0768,23.9081 L90.1278,23.8181 C91.3678,21.6291 92.7728,19.1471 93.3488,18.9981 C93.4688,18.9981 93.5278,18.9981 93.5278,19.2621 C93.5278,19.4021 93.4988,19.6381 93.3638,19.9841 C93.1998,20.2521 92.6548,21.1651 91.9868,22.5301 C91.7858,22.9411 91.1708,24.1921 91.1708,25.4521 C91.1708,26.8751 91.9698,27.9161 93.3618,28.2791 C93.9368,28.3991 94.5408,28.3991 95.0878,28.2791 L87.7898,42.1311 C87.5488,42.6141 87.7098,43.2581 88.1928,43.5001 C88.3548,43.5811 88.5148,43.6211 88.6768,43.6211 C89.0388,43.6211 89.4018,43.4191 89.5628,43.0571 L96.1048,30.6591 Z" id="Fill-87" fill="#6DB2B7"></path>
                <polygon id="Fill-90" fill="#C35F45" points="92.231 54.832 91 54.832 91 47 92.231 47 92.231 50.357 93.63 50.357 93.63 47 94.883 47 94.883 54.832 93.63 54.832 93.63 51.475 92.231 51.475"></polygon>
                <path d="M96,48.969 C96,47.716 96.66,47 97.868,47 C99.077,47 99.737,47.716 99.737,48.969 L99.737,53.042 C99.737,54.295 99.077,55.011 97.868,55.011 C96.66,55.011 96,54.295 96,53.042 L96,48.969 Z M97.231,53.12 C97.231,53.68 97.477,53.892 97.868,53.892 C98.26,53.892 98.506,53.68 98.506,53.12 L98.506,48.891 C98.506,48.331 98.26,48.119 97.868,48.119 C97.477,48.119 97.231,48.331 97.231,48.891 L97.231,53.12 Z" id="Fill-91" fill="#C35F45"></path>
                <polygon id="Fill-93" fill="#C35F45" points="101 47 104.804 47 104.804 48.119 103.517 48.119 103.517 54.832 102.287 54.832 102.287 48.119 101 48.119"></polygon>
                <path d="M85.67,63.001 L85.67,64.042 C85.67,65.295 85.043,66.011 83.835,66.011 C82.627,66.011 82,65.295 82,64.042 L82,59.969 C82,58.716 82.627,58 83.835,58 C85.043,58 85.67,58.716 85.67,59.969 L85.67,60.73 L84.506,60.73 L84.506,59.891 C84.506,59.331 84.26,59.119 83.869,59.119 C83.477,59.119 83.231,59.331 83.231,59.891 L83.231,64.12 C83.231,64.68 83.477,64.881 83.869,64.881 C84.26,64.881 84.506,64.68 84.506,64.12 L84.506,63.001 L85.67,63.001 Z" id="Fill-94" fill="#C35F45"></path>
                <polygon id="Fill-96" fill="#C35F45" points="88.231 65.832 87 65.832 87 58 88.231 58 88.231 61.357 89.63 61.357 89.63 58 90.883 58 90.883 65.832 89.63 65.832 89.63 62.475 88.231 62.475"></polygon>
                <polygon id="Fill-97" fill="#C35F45" points="92 65.832 93.231 65.832 93.231 58 92 58"></polygon>
                <path d="M98.67,63.001 L98.67,64.042 C98.67,65.295 98.043,66.011 96.835,66.011 C95.627,66.011 95,65.295 95,64.042 L95,59.969 C95,58.716 95.627,58 96.835,58 C98.043,58 98.67,58.716 98.67,59.969 L98.67,60.73 L97.506,60.73 L97.506,59.891 C97.506,59.331 97.26,59.119 96.868,59.119 C96.477,59.119 96.23,59.331 96.23,59.891 L96.23,64.12 C96.23,64.68 96.477,64.881 96.868,64.881 C97.26,64.881 97.506,64.68 97.506,64.12 L97.506,63.001 L98.67,63.001 Z" id="Fill-98" fill="#C35F45"></path>
                <polygon id="Fill-100" fill="#C35F45" points="101.611 62.711 101.231 63.427 101.231 65.832 100 65.832 100 58 101.231 58 101.231 61.413 102.842 58 104.072 58 102.361 61.491 104.072 65.832 102.808 65.832"></polygon>
                <polygon id="Fill-101" fill="#C35F45" points="106.231 61.3 107.92 61.3 107.92 62.419 106.231 62.419 106.231 64.713 108.357 64.713 108.357 65.832 105 65.832 105 58 108.357 58 108.357 59.119 106.231 59.119"></polygon>
                <polygon id="Fill-102" fill="#C35F45" points="110.107 60.16 110.107 65.832 109 65.832 109 58 110.543 58 111.808 62.688 111.808 58 112.904 58 112.904 65.832 111.64 65.832"></polygon>
                <path d="M70.0192,87.5827562 L70.0192,90.5827562 L68.9192,90.5827562 L68.9192,83.5827562 L70.0192,83.5827562 L70.0192,86.5827562 L71.2692,86.5827562 L71.2692,83.5827562 L72.3892,83.5827562 L72.3892,90.5827562 L71.2692,90.5827562 L71.2692,87.5827562 L70.0192,87.5827562 Z M74.2352,85.1927562 L74.2352,88.9727562 C74.2352,89.4727562 74.4552,89.6627563 74.8052,89.6627563 C75.1552,89.6627563 75.3752,89.4727562 75.3752,88.9727562 L75.3752,85.1927562 C75.3752,84.6927562 75.1552,84.5027562 74.8052,84.5027562 C74.4552,84.5027562 74.2352,84.6927562 74.2352,85.1927562 Z M73.1352,88.9027562 L73.1352,85.2627562 C73.1352,84.1427562 73.7252,83.5027562 74.8052,83.5027562 C75.8852,83.5027562 76.4752,84.1427562 76.4752,85.2627562 L76.4752,88.9027562 C76.4752,90.0227562 75.8852,90.6627563 74.8052,90.6627563 C73.7252,90.6627563 73.1352,90.0227562 73.1352,88.9027562 Z M80.0612,90.5827562 L79.6612,86.8527562 L79.2612,90.5827562 L77.7512,90.5827562 L76.9712,83.5827562 L78.0412,83.5827562 L78.6312,89.1027562 L79.1612,83.5827562 L80.2212,83.5827562 L80.7712,89.1427562 L81.3412,83.5827562 L82.3012,83.5827562 L81.5212,90.5827562 L80.0612,90.5827562 Z M110.7072,87.5827562 L110.7072,90.5827562 L109.6072,90.5827562 L109.6072,83.5827562 L110.7072,83.5827562 L110.7072,86.5827562 L111.9572,86.5827562 L111.9572,83.5827562 L113.0772,83.5827562 L113.0772,90.5827562 L111.9572,90.5827562 L111.9572,87.5827562 L110.7072,87.5827562 Z M114.9232,85.1927562 L114.9232,88.9727562 C114.9232,89.4727562 115.1432,89.6627563 115.4932,89.6627563 C115.8432,89.6627563 116.0632,89.4727562 116.0632,88.9727562 L116.0632,85.1927562 C116.0632,84.6927562 115.8432,84.5027562 115.4932,84.5027562 C115.1432,84.5027562 114.9232,84.6927562 114.9232,85.1927562 Z M113.8232,88.9027562 L113.8232,85.2627562 C113.8232,84.1427562 114.4132,83.5027562 115.4932,83.5027562 C116.5732,83.5027562 117.1632,84.1427562 117.1632,85.2627562 L117.1632,88.9027562 C117.1632,90.0227562 116.5732,90.6627563 115.4932,90.6627563 C114.4132,90.6627563 113.8232,90.0227562 113.8232,88.9027562 Z M117.5892,84.5827562 L117.5892,83.5827562 L120.9892,83.5827562 L120.9892,84.5827562 L119.8392,84.5827562 L119.8392,90.5827562 L118.7392,90.5827562 L118.7392,84.5827562 L117.5892,84.5827562 Z M123.2852,89.0327562 L122.3052,89.0327562 C122.2652,88.9127563 122.2452,88.7827562 122.2452,88.6027562 C122.2452,87.0727562 123.4452,86.9327562 123.4452,85.1927562 C123.4452,84.6927562 123.2452,84.5027562 122.8952,84.5027562 C122.5452,84.5027562 122.3452,84.6927562 122.3452,85.1927562 L122.3452,85.9527562 L121.3052,85.9527562 L121.3052,85.2627562 C121.3052,84.1427562 121.8552,83.5027562 122.9252,83.5027562 C123.9952,83.5027562 124.5452,84.1427562 124.5452,85.2627562 C124.5452,87.0827562 123.2452,87.3627562 123.2452,88.6427562 C123.2452,88.7727562 123.2552,88.9027562 123.2852,89.0327562 Z M122.2552,89.5227562 L123.3152,89.5227562 L123.3152,90.5827562 L122.2552,90.5827562 L122.2552,89.5227562 Z" id="HOW-HOT?" fill="#C35F45"></path>
                <path d="M0,88.985 L64.44,88.985" id="Stroke-64" stroke="#C35F45" stroke-width="0.5"></path>
                <path d="M127.8,88.985 L192.24,88.985" id="Stroke-65" stroke="#C35F45" stroke-width="0.5"></path>
            </g>
        </g>
    </g>
</svg>